<mxfile host="Electron" modified="2024-01-12T09:06:14.650Z" agent="Mozilla/5.0 (Windows NT 10.0; Win64; x64) AppleWebKit/537.36 (KHTML, like Gecko) draw.io/22.1.11 Chrome/114.0.5735.289 Electron/25.9.8 Safari/537.36" etag="84dgDQmr5fYYq01ke6vH" version="22.1.11" type="device">
  <diagram name="第 1 页" id="G4YdaDmvxhVqr14ST0D1">
    <mxGraphModel dx="1102" dy="894" grid="1" gridSize="10" guides="1" tooltips="1" connect="1" arrows="1" fold="1" page="1" pageScale="1" pageWidth="827" pageHeight="1169" math="0" shadow="0">
      <root>
        <mxCell id="0" />
        <mxCell id="1" parent="0" />
        <mxCell id="amch8n759n2fy8G0GLds-5" style="edgeStyle=orthogonalEdgeStyle;rounded=0;orthogonalLoop=1;jettySize=auto;html=1;exitX=1;exitY=0.5;exitDx=0;exitDy=0;" parent="1" source="amch8n759n2fy8G0GLds-1" target="amch8n759n2fy8G0GLds-2" edge="1">
          <mxGeometry relative="1" as="geometry" />
        </mxCell>
        <mxCell id="amch8n759n2fy8G0GLds-1" value="学生时代&lt;br&gt;（8-27，共20年）" style="ellipse;whiteSpace=wrap;html=1;fontStyle=1;fillColor=#f5f5f5;strokeColor=#666666;gradientColor=#b3b3b3;" parent="1" vertex="1">
          <mxGeometry y="270" width="120" height="80" as="geometry" />
        </mxCell>
        <mxCell id="amch8n759n2fy8G0GLds-6" style="edgeStyle=orthogonalEdgeStyle;rounded=0;orthogonalLoop=1;jettySize=auto;html=1;exitX=1;exitY=0.5;exitDx=0;exitDy=0;" parent="1" source="amch8n759n2fy8G0GLds-2" target="amch8n759n2fy8G0GLds-3" edge="1">
          <mxGeometry relative="1" as="geometry" />
        </mxCell>
        <mxCell id="amch8n759n2fy8G0GLds-2" value="工作时代&lt;br&gt;（27-43，共15年）" style="ellipse;whiteSpace=wrap;html=1;fontStyle=1;fillColor=#f8cecc;gradientColor=#ea6b66;strokeColor=#b85450;" parent="1" vertex="1">
          <mxGeometry x="236" y="270" width="120" height="80" as="geometry" />
        </mxCell>
        <mxCell id="amch8n759n2fy8G0GLds-7" style="edgeStyle=orthogonalEdgeStyle;rounded=0;orthogonalLoop=1;jettySize=auto;html=1;exitX=1;exitY=0.5;exitDx=0;exitDy=0;" parent="1" source="amch8n759n2fy8G0GLds-3" target="amch8n759n2fy8G0GLds-4" edge="1">
          <mxGeometry relative="1" as="geometry" />
        </mxCell>
        <mxCell id="amch8n759n2fy8G0GLds-3" value="隐居时代&lt;br&gt;（43-58，共15年）" style="ellipse;whiteSpace=wrap;html=1;fontStyle=1;fillColor=#fff2cc;gradientColor=#ffd966;strokeColor=#d6b656;" parent="1" vertex="1">
          <mxGeometry x="471" y="270" width="120" height="80" as="geometry" />
        </mxCell>
        <mxCell id="amch8n759n2fy8G0GLds-4" value="退休时代&lt;br&gt;（58-xx，共xx年）" style="ellipse;whiteSpace=wrap;html=1;fontStyle=1;fillColor=#d5e8d4;gradientColor=#97d077;strokeColor=#82b366;" parent="1" vertex="1">
          <mxGeometry x="707" y="270" width="120" height="80" as="geometry" />
        </mxCell>
        <mxCell id="nwEobwlzH2A8oKG7pkZF-6" style="edgeStyle=orthogonalEdgeStyle;rounded=0;orthogonalLoop=1;jettySize=auto;html=1;exitX=0.5;exitY=1;exitDx=0;exitDy=0;" edge="1" parent="1" source="nwEobwlzH2A8oKG7pkZF-2" target="nwEobwlzH2A8oKG7pkZF-5">
          <mxGeometry relative="1" as="geometry" />
        </mxCell>
        <mxCell id="nwEobwlzH2A8oKG7pkZF-2" value="正常推进工作 | pre run-2024" style="rounded=0;whiteSpace=wrap;html=1;fontStyle=1;fillColor=#ffcd28;strokeColor=#d79b00;gradientColor=#ffa500;" vertex="1" parent="1">
          <mxGeometry x="280" y="490" width="180" height="40" as="geometry" />
        </mxCell>
        <mxCell id="nwEobwlzH2A8oKG7pkZF-8" style="edgeStyle=orthogonalEdgeStyle;rounded=0;orthogonalLoop=1;jettySize=auto;html=1;exitX=0.5;exitY=1;exitDx=0;exitDy=0;fontStyle=1" edge="1" parent="1" source="nwEobwlzH2A8oKG7pkZF-5" target="nwEobwlzH2A8oKG7pkZF-7">
          <mxGeometry relative="1" as="geometry" />
        </mxCell>
        <mxCell id="nwEobwlzH2A8oKG7pkZF-19" style="edgeStyle=orthogonalEdgeStyle;rounded=0;orthogonalLoop=1;jettySize=auto;html=1;exitX=0;exitY=0.5;exitDx=0;exitDy=0;entryX=0;entryY=0.5;entryDx=0;entryDy=0;" edge="1" parent="1" source="nwEobwlzH2A8oKG7pkZF-5" target="nwEobwlzH2A8oKG7pkZF-16">
          <mxGeometry relative="1" as="geometry">
            <Array as="points">
              <mxPoint x="230" y="625" />
              <mxPoint x="230" y="980" />
            </Array>
          </mxGeometry>
        </mxCell>
        <mxCell id="nwEobwlzH2A8oKG7pkZF-5" value="公司裁员了？" style="rhombus;whiteSpace=wrap;html=1;fontStyle=1;fillColor=#f8cecc;gradientColor=#ea6b66;strokeColor=#b85450;" vertex="1" parent="1">
          <mxGeometry x="305" y="585" width="130" height="80" as="geometry" />
        </mxCell>
        <mxCell id="nwEobwlzH2A8oKG7pkZF-41" style="edgeStyle=orthogonalEdgeStyle;rounded=0;orthogonalLoop=1;jettySize=auto;html=1;exitX=0.5;exitY=1;exitDx=0;exitDy=0;" edge="1" parent="1" source="nwEobwlzH2A8oKG7pkZF-7" target="nwEobwlzH2A8oKG7pkZF-39">
          <mxGeometry relative="1" as="geometry" />
        </mxCell>
        <mxCell id="nwEobwlzH2A8oKG7pkZF-46" style="edgeStyle=orthogonalEdgeStyle;rounded=0;orthogonalLoop=1;jettySize=auto;html=1;exitX=0;exitY=0.5;exitDx=0;exitDy=0;entryX=0;entryY=0.5;entryDx=0;entryDy=0;" edge="1" parent="1" source="nwEobwlzH2A8oKG7pkZF-7" target="nwEobwlzH2A8oKG7pkZF-16">
          <mxGeometry relative="1" as="geometry">
            <Array as="points">
              <mxPoint x="230" y="755" />
              <mxPoint x="230" y="980" />
            </Array>
          </mxGeometry>
        </mxCell>
        <mxCell id="nwEobwlzH2A8oKG7pkZF-7" value="暴雷了？" style="rhombus;whiteSpace=wrap;html=1;fontStyle=1;fillColor=#f8cecc;gradientColor=#ea6b66;strokeColor=#b85450;" vertex="1" parent="1">
          <mxGeometry x="305" y="715" width="130" height="80" as="geometry" />
        </mxCell>
        <mxCell id="nwEobwlzH2A8oKG7pkZF-11" value="Y" style="text;html=1;align=center;verticalAlign=middle;resizable=0;points=[];autosize=1;strokeColor=none;fillColor=none;fontStyle=1" vertex="1" parent="1">
          <mxGeometry x="260" y="600" width="30" height="30" as="geometry" />
        </mxCell>
        <mxCell id="nwEobwlzH2A8oKG7pkZF-12" value="Y" style="text;html=1;align=center;verticalAlign=middle;resizable=0;points=[];autosize=1;strokeColor=none;fillColor=none;fontStyle=1" vertex="1" parent="1">
          <mxGeometry x="270" y="715" width="30" height="30" as="geometry" />
        </mxCell>
        <mxCell id="nwEobwlzH2A8oKG7pkZF-13" value="N" style="text;html=1;align=center;verticalAlign=middle;resizable=0;points=[];autosize=1;strokeColor=none;fillColor=none;fontStyle=1" vertex="1" parent="1">
          <mxGeometry x="326" y="670" width="30" height="30" as="geometry" />
        </mxCell>
        <mxCell id="nwEobwlzH2A8oKG7pkZF-14" value="N" style="text;html=1;align=center;verticalAlign=middle;resizable=0;points=[];autosize=1;strokeColor=none;fillColor=none;fontStyle=1" vertex="1" parent="1">
          <mxGeometry x="326" y="795" width="30" height="30" as="geometry" />
        </mxCell>
        <mxCell id="nwEobwlzH2A8oKG7pkZF-49" style="edgeStyle=orthogonalEdgeStyle;rounded=0;orthogonalLoop=1;jettySize=auto;html=1;exitX=0.5;exitY=1;exitDx=0;exitDy=0;" edge="1" parent="1" source="nwEobwlzH2A8oKG7pkZF-16" target="nwEobwlzH2A8oKG7pkZF-47">
          <mxGeometry relative="1" as="geometry" />
        </mxCell>
        <mxCell id="nwEobwlzH2A8oKG7pkZF-16" value="准备仲裁" style="rounded=0;whiteSpace=wrap;html=1;fontStyle=1;fillColor=#ffcd28;gradientColor=#ffa500;strokeColor=#d79b00;" vertex="1" parent="1">
          <mxGeometry x="280" y="960" width="180" height="40" as="geometry" />
        </mxCell>
        <mxCell id="nwEobwlzH2A8oKG7pkZF-20" value="launch run-2024计划" style="rounded=0;whiteSpace=wrap;html=1;fontStyle=1;fillColor=#ffcd28;gradientColor=#ffa500;strokeColor=#d79b00;" vertex="1" parent="1">
          <mxGeometry x="280" y="1110" width="180" height="40" as="geometry" />
        </mxCell>
        <mxCell id="nwEobwlzH2A8oKG7pkZF-40" style="edgeStyle=orthogonalEdgeStyle;rounded=0;orthogonalLoop=1;jettySize=auto;html=1;exitX=0.5;exitY=1;exitDx=0;exitDy=0;entryX=0.5;entryY=0;entryDx=0;entryDy=0;" edge="1" parent="1" source="nwEobwlzH2A8oKG7pkZF-39" target="nwEobwlzH2A8oKG7pkZF-16">
          <mxGeometry relative="1" as="geometry" />
        </mxCell>
        <mxCell id="nwEobwlzH2A8oKG7pkZF-43" style="edgeStyle=orthogonalEdgeStyle;rounded=0;orthogonalLoop=1;jettySize=auto;html=1;exitX=1;exitY=0.5;exitDx=0;exitDy=0;entryX=1;entryY=0.5;entryDx=0;entryDy=0;" edge="1" parent="1" source="nwEobwlzH2A8oKG7pkZF-39" target="nwEobwlzH2A8oKG7pkZF-2">
          <mxGeometry relative="1" as="geometry">
            <Array as="points">
              <mxPoint x="510" y="870" />
              <mxPoint x="510" y="510" />
            </Array>
          </mxGeometry>
        </mxCell>
        <mxCell id="nwEobwlzH2A8oKG7pkZF-39" value="满两年？" style="rhombus;whiteSpace=wrap;html=1;fontStyle=1;fillColor=#f8cecc;gradientColor=#ea6b66;strokeColor=#b85450;" vertex="1" parent="1">
          <mxGeometry x="305" y="830" width="130" height="80" as="geometry" />
        </mxCell>
        <mxCell id="nwEobwlzH2A8oKG7pkZF-42" value="Y" style="text;html=1;align=center;verticalAlign=middle;resizable=0;points=[];autosize=1;strokeColor=none;fillColor=none;fontStyle=1" vertex="1" parent="1">
          <mxGeometry x="340" y="910" width="30" height="30" as="geometry" />
        </mxCell>
        <mxCell id="nwEobwlzH2A8oKG7pkZF-44" value="N" style="text;html=1;align=center;verticalAlign=middle;resizable=0;points=[];autosize=1;strokeColor=none;fillColor=none;fontStyle=1" vertex="1" parent="1">
          <mxGeometry x="450" y="830" width="30" height="30" as="geometry" />
        </mxCell>
        <mxCell id="nwEobwlzH2A8oKG7pkZF-50" style="edgeStyle=orthogonalEdgeStyle;rounded=0;orthogonalLoop=1;jettySize=auto;html=1;exitX=0.5;exitY=1;exitDx=0;exitDy=0;entryX=0.5;entryY=0;entryDx=0;entryDy=0;" edge="1" parent="1" source="nwEobwlzH2A8oKG7pkZF-47" target="nwEobwlzH2A8oKG7pkZF-20">
          <mxGeometry relative="1" as="geometry" />
        </mxCell>
        <mxCell id="nwEobwlzH2A8oKG7pkZF-47" value="离职&amp;nbsp;" style="rounded=0;whiteSpace=wrap;html=1;fontStyle=1;fillColor=#ffcd28;gradientColor=#ffa500;strokeColor=#d79b00;" vertex="1" parent="1">
          <mxGeometry x="280" y="1030" width="180" height="40" as="geometry" />
        </mxCell>
      </root>
    </mxGraphModel>
  </diagram>
</mxfile>
